<?xml version="1.0" encoding="UTF-8"?>
<svg width="27px" height="24px" viewBox="0 0 27 24" version="1.1" xmlns="http://www.w3.org/2000/svg" xmlns:xlink="http://www.w3.org/1999/xlink">
    <title>IC_Bt back</title>
    <g id="Page-1" stroke="none" stroke-width="1" fill="none" fill-rule="evenodd">
        <g id="View-Copy-2" transform="translate(-499.000000, -248.000000)" fill="#00263A" fill-rule="nonzero">
            <g id="Back-Arrow" transform="translate(493.000000, 240.000000)">
                <polygon id="Rectangle" opacity="0" transform="translate(20.000000, 20.000000) rotate(90.000000) translate(-20.000000, -20.000000) " points="2.01344877e-13 -2.77555756e-15 40 -2.77555756e-15 40 40 2.01344877e-13 40"></polygon>
                <path d="M31.3125,18.2869618 L11.29875,18.2869618 L17.424375,10.8133577 C18.0208425,10.0844083 17.922625,9.00231531 17.205,8.3964353 C16.487375,7.79055529 15.4220925,7.89032273 14.825625,8.61927212 L6.388125,18.9040483 C6.33135865,18.985854 6.28059653,19.0717926 6.23625,19.1611677 C6.23625,19.2468742 6.23625,19.2982981 6.118125,19.3840046 C6.0416365,19.5805444 6.00158814,19.7897575 6,20.0010911 C6.00158814,20.2124247 6.0416365,20.4216379 6.118125,20.6181777 C6.118125,20.7038842 6.118125,20.7553081 6.23625,20.8410145 C6.28059653,20.9303897 6.33135865,21.0163283 6.388125,21.0981339 L14.825625,31.3829102 C15.1468516,31.7746574 15.6230831,32.0008247 16.125,32 C16.519288,32.0007792 16.9013984,31.8612914 17.205,31.605747 C17.5501058,31.3151195 17.767187,30.8969531 17.8083436,30.4435184 C17.8495001,29.9900836 17.7113494,29.5386486 17.424375,29.1888246 L11.29875,21.7152205 L31.3125,21.7152205 C32.2444805,21.7152205 33,20.9477786 33,20.0010911 C33,19.0544036 32.2444805,18.2869618 31.3125,18.2869618 Z" id="Path"></path>
            </g>
        </g>
    </g>
</svg>