<?xml version="1.0" encoding="UTF-8"?>
<svg width="23px" height="23px" viewBox="0 0 23 23" version="1.1" xmlns="http://www.w3.org/2000/svg" xmlns:xlink="http://www.w3.org/1999/xlink">
    <title>IC_Bt cancel</title>
    <g id="Page-1" stroke="none" stroke-width="1" fill="none" fill-rule="evenodd">
        <g id="View-Copy-2" transform="translate(-1037.000000, -249.000000)" fill="#00263A" fill-rule="nonzero">
            <g id="Cancel" transform="translate(1037.000000, 249.000000)">
                <path d="M14.1998909,11.4983658 L22.4336006,3.28263686 C23.1844425,2.53168827 23.1844425,1.31416004 22.4336006,0.563211445 C21.6827587,-0.187737148 20.4654034,-0.187737148 19.7145616,0.563211445 L11.5,8.79809123 L3.28543845,0.563211445 C2.53459655,-0.187737129 1.31724133,-0.18773712 0.566399447,0.563211465 C-0.184442438,1.31416005 -0.184442447,2.53168827 0.566399427,3.28263686 L8.80010914,11.4983658 L0.566399427,19.7140947 C0.203900494,20.0736843 0,20.5631729 0,21.0738074 C0,21.5844418 0.203900494,22.0739305 0.566399427,22.4335201 C0.925937957,22.7960705 1.41535706,23 1.92591894,23 C2.43648082,23 2.92589992,22.7960705 3.28543845,22.4335201 L11.5,14.1986403 L19.7145616,22.4335201 C20.0741001,22.7960705 20.5635192,23 21.0740811,23 C21.5846429,23 22.074062,22.7960705 22.4336006,22.4335201 C22.7960995,22.0739305 23,21.5844418 23,21.0738074 C23,20.5631729 22.7960995,20.0736843 22.4336006,19.7140947 L14.1998909,11.4983658 Z" id="Path"></path>
            </g>
        </g>
    </g>
</svg>